<svg height="512pt" viewBox="0 0 511 512" width="512pt" xmlns="http://www.w3.org/2000/svg"><path d="m501.421875 232.789062c-11.699219-124.976562-116.882813-222.785156-244.914063-222.789062-135.535156-.003906-246.011718 110.472656-246.007812 246.007812.003906 135.859376 110.140625 245.992188 246 245.992188 78.753906 0 148.863281-37.007812 193.886719-94.578125l-.007813-.007813c18.839844-22.984374 17.558594-56.941406-3.847656-78.429687-22.265625-22.351563-58.816406-22.925781-81.734375-1.246094-5.253906 4.964844-9.375 10.65625-12.371094 16.757813-15.277343 31.136718-46.71875 51.273437-81.363281 52.878906-2.386719.113281-4.792969.171875-7.207031.179688-90.578125.304687-165.027344-73.324219-165.683594-163.898438-.667969-91.757812 73.515625-166.351562 165.121094-166.351562 48.949219 0 92.925781 21.300781 123.164062 55.136718 4.480469-8.96875 14.773438-9.488281 20.183594-3.570312 28.925781 31.65625 47.972656 72.488281 52.269531 117.621094 1.050782 11.023437 10.179688 19.503906 21.253906 19.503906 12.523438.003906 22.421876-10.738282 21.257813-23.207032zm0 0" fill="#9593e6"/><path d="m256.5 512c-51.898438 0-101.878906-15.449219-144.53125-44.675781-4.558594-3.121094-5.722656-9.347657-2.597656-13.902344 3.121094-4.554687 9.34375-5.71875 13.898437-2.597656 39.316407 26.9375 85.382813 41.175781 133.230469 41.175781 72.953125 0 140.617188-32.929688 185.714844-90.359375.136718-.191406.277344-.378906.429687-.5625 15.847657-19.335937 14.472657-47.296875-3.199219-65.035156-18.421874-18.492188-48.828124-18.960938-67.777343-1.039063-4.261719 4.03125-7.714844 8.707032-10.261719 13.902344-16.820312 34.269531-51.257812 56.667969-89.878906 58.460938-2.542969.117187-5.113282.183593-7.640625.1875-.191407.003906-.398438.003906-.589844.003906-95.929687.003906-174.425781-77.851563-175.125-173.828125-.339844-47.035157 17.714844-91.3125 50.835937-124.679688 33.128907-33.367187 77.265626-51.746093 124.285157-51.746093 46.238281 0 90.589843 18.375 123.277343 50.742187 2.484376-1.476563 5.246094-2.457031 8.183594-2.867187 7.175782-1 14.375 1.597656 19.269532 6.949218 31.472656 34.441406 50.4375 77.117188 54.84375 123.417969.566406 5.960937 5.421874 10.453125 11.296874 10.453125 3.246094 0 6.234376-1.320312 8.421876-3.722656 2.152343-2.363282 3.171874-5.398438 2.878906-8.558594-11.402344-121.835938-112.414063-213.714844-234.957032-213.71875-62.878906 0-122.101562 24.59375-166.757812 69.25s-69.25 103.878906-69.25 166.757812c.003906 48.351563 14.519531 94.820313 41.980469 134.390626 3.148437 4.535156 2.023437 10.769531-2.511719 13.917968-4.539062 3.148438-10.769531 2.019532-13.917969-2.515625-29.796875-42.933593-45.546875-93.347656-45.550781-145.792969-.003906-68.222656 26.671875-132.46875 75.105469-180.902343 48.433593-48.429688 112.679687-75.105469 180.894531-75.105469h.007812c64.164063.00390625 125.546876 23.851562 172.835938 67.15625 46.984375 43.027344 76.121094 101.519531 82.03125 164.699219.816406 8.703125-2.101562 17.410156-8.003906 23.890625-5.933594 6.515625-14.394532 10.253906-23.207032 10.253906-16.242187 0-29.660156-12.277344-31.207031-28.558594-3.992187-41.945312-21.179687-80.609375-49.699219-111.820312-.445312-.484375-1.09375-.722656-1.738281-.632813-1.023437.144531-1.714843 1.125-2.113281 1.921875-1.480469 2.964844-4.332031 5.003906-7.621094 5.445313-3.285156.441406-6.574218-.777344-8.78125-3.25-29.417968-32.917969-71.59375-51.800781-115.710937-51.800781-41.648438 0-80.746094 16.277343-110.089844 45.835937-29.339844 29.554687-45.332031 68.777344-45.03125 110.445313.617187 85.007812 70.160156 153.96875 155.125 153.96875h.523437c2.242188-.007813 4.523438-.0625 6.785157-.167969 31.328125-1.453125 59.242187-19.574219 72.84375-47.292969 3.605469-7.34375 8.472656-13.945312 14.476562-19.621094 26.753907-25.304687 69.683594-24.652344 95.691407 1.453125 24.820312 24.921875 26.855468 64.132813 4.824218 91.421875-.054687.082032-.117187.160156-.175781.234375-23.4375 29.964844-53.765625 54.746094-87.710937 71.667969-35.613282 17.75-73.984376 26.75-114.054688 26.75zm0 0"/><path d="m83.0625 440.4375c-2.679688 0-5.359375-1.070312-7.328125-3.191406-3.757813-4.046875-3.527344-10.367188.519531-14.125l.011719-.011719c4.046875-3.757813 10.375-3.523437 14.132813.523437 3.757812 4.046876 3.523437 10.375-.519532 14.132813-1.929687 1.789063-4.375 2.671875-6.816406 2.671875zm0 0"/><path d="m263.144531 452c-120.453125 0-219.023437-97.753906-219.898437-218.269531-.042969-5.523438 4.402344-10.03125 9.925781-10.074219h.074219c5.488281 0 9.957031 4.433594 10 9.929688.792968 109.542968 90.40625 198.414062 199.898437 198.414062.238281 0 .472657.007812.710938 0 5.507812 0 9.980469 4.453125 10 9.964844.019531 5.523437-4.445313 10.015625-9.96875 10.035156-.242188 0-.5 0-.742188 0zm0 0"/></svg>